<svg xmlns="http://www.w3.org/2000/svg" viewBox="0 0 512 512" width="100%" height="100%">
  <defs>
    <linearGradient id="bgGrad" x1="0%" y1="0%" x2="100%" y2="100%">
      <stop offset="0%" stop-color="#0f766e" />
      <stop offset="100%" stop-color="#115e59" />
    </linearGradient>
    <linearGradient id="heartGrad" x1="0%" y1="0%" x2="0%" y2="100%">
      <stop offset="0%" stop-color="#14b8a6" />
      <stop offset="100%" stop-color="#0d9488" />
    </linearGradient>
  </defs>

  <rect width="512" height="512" rx="112" fill="url(#bgGrad)"/>

  <g transform="translate(106, 96)">
    <path d="M150 280 C60 200 0 140 0 85 C0 38 38 0 85 0 C112 0 138 13 150 33 C162 13 188 0 215 0 C262 0 300 38 300 85 C300 140 240 200 150 280 Z" fill="#ffffff" />
    <path d="M150 260 C75 185 15 130 15 85 C15 48 48 15 85 15 C108 15 130 27 150 48 C170 27 192 15 215 15 C252 15 285 48 285 85 C285 130 225 185 150 260 Z" fill="url(#heartGrad)" />
    
    <rect x="135" y="65" width="30" height="90" rx="6" fill="#ffffff" />
    <rect x="105" y="95" width="90" height="30" rx="6" fill="#ffffff" />
  </g>
</svg>
